solid OpenSCAD_Model
  facet normal -1 0 0
    outer loop
      vertex 1.4 1.4 11.4
      vertex 1.4 2.9 22.8
      vertex 1.4 2.9 11.4
    endloop
  endfacet
  facet normal -1 -0 0
    outer loop
      vertex 1.4 2.9 22.8
      vertex 1.4 1.4 11.4
      vertex 1.4 1.4 22.8
    endloop
  endfacet
  facet normal -1 0 0
    outer loop
      vertex 1.4 57.8 11.4
      vertex 1.4 59 22.8
      vertex 1.4 59 11.4
    endloop
  endfacet
  facet normal -1 -0 0
    outer loop
      vertex 1.4 59 22.8
      vertex 1.4 57.8 11.4
      vertex 1.4 57.8 22.8
    endloop
  endfacet
  facet normal -1 0 0
    outer loop
      vertex 1.4 75 11.4
      vertex 1.4 76.2 22.8
      vertex 1.4 76.2 11.4
    endloop
  endfacet
  facet normal -1 -0 0
    outer loop
      vertex 1.4 76.2 22.8
      vertex 1.4 75 11.4
      vertex 1.4 75 22.8
    endloop
  endfacet
  facet normal -1 0 0
    outer loop
      vertex 1.4 92.2 11.4
      vertex 1.4 93.4 22.8
      vertex 1.4 93.4 11.4
    endloop
  endfacet
  facet normal -1 -0 0
    outer loop
      vertex 1.4 93.4 22.8
      vertex 1.4 92.2 11.4
      vertex 1.4 92.2 22.8
    endloop
  endfacet
  facet normal -1 0 0
    outer loop
      vertex 1.4 109.4 11.4
      vertex 1.4 110.6 22.8
      vertex 1.4 110.6 11.4
    endloop
  endfacet
  facet normal -1 -0 0
    outer loop
      vertex 1.4 110.6 22.8
      vertex 1.4 109.4 11.4
      vertex 1.4 109.4 22.8
    endloop
  endfacet
  facet normal 1 -0 0
    outer loop
      vertex 166.7 109.4 22.8
      vertex 166.7 110.6 11.4
      vertex 166.7 110.6 22.8
    endloop
  endfacet
  facet normal 1 0 0
    outer loop
      vertex 166.7 110.6 11.4
      vertex 166.7 109.4 22.8
      vertex 166.7 109.4 11.4
    endloop
  endfacet
  facet normal 1 -0 0
    outer loop
      vertex 166.7 92.2 22.8
      vertex 166.7 93.4 11.4
      vertex 166.7 93.4 22.8
    endloop
  endfacet
  facet normal 1 0 0
    outer loop
      vertex 166.7 93.4 11.4
      vertex 166.7 92.2 22.8
      vertex 166.7 92.2 11.4
    endloop
  endfacet
  facet normal 0 0 -1
    outer loop
      vertex 1.4 1.4 11.4
      vertex 6.3 2.9 11.4
      vertex 6.3 1.4 11.4
    endloop
  endfacet
  facet normal -0 0 -1
    outer loop
      vertex 6.3 2.9 11.4
      vertex 1.4 1.4 11.4
      vertex 1.4 2.9 11.4
    endloop
  endfacet
  facet normal 0 0 -1
    outer loop
      vertex 134.2 75 11.4
      vertex 89.8667 76.2 11.4
      vertex 134.2 76.2 11.4
    endloop
  endfacet
  facet normal 0 0 -1
    outer loop
      vertex 89.8667 76.2 11.4
      vertex 88.6667 76.2 11.4
      vertex 89.8667 92.2 11.4
    endloop
  endfacet
  facet normal 0 0 -1
    outer loop
      vertex 134.2 75 11.4
      vertex 88.6667 76.2 11.4
      vertex 89.8667 76.2 11.4
    endloop
  endfacet
  facet normal 0 0 -1
    outer loop
      vertex 1.4 75 11.4
      vertex 88.6667 76.2 11.4
      vertex 134.2 75 11.4
    endloop
  endfacet
  facet normal -0 0 -1
    outer loop
      vertex 88.6667 76.2 11.4
      vertex 1.4 75 11.4
      vertex 1.4 76.2 11.4
    endloop
  endfacet
  facet normal 0 0 -1
    outer loop
      vertex 166.7 57.8 11.4
      vertex 135.4 59 11.4
      vertex 166.7 59 11.4
    endloop
  endfacet
  facet normal 0 0 -1
    outer loop
      vertex 134.2 75 11.4
      vertex 135.4 59 11.4
      vertex 134.2 59 11.4
    endloop
  endfacet
  facet normal 0 0 -1
    outer loop
      vertex 166.7 57.8 11.4
      vertex 134.2 59 11.4
      vertex 135.4 59 11.4
    endloop
  endfacet
  facet normal 0 0 -1
    outer loop
      vertex 1.4 57.8 11.4
      vertex 134.2 59 11.4
      vertex 166.7 57.8 11.4
    endloop
  endfacet
  facet normal -0 0 -1
    outer loop
      vertex 134.2 59 11.4
      vertex 1.4 57.8 11.4
      vertex 1.4 59 11.4
    endloop
  endfacet
  facet normal 0 0 -1
    outer loop
      vertex 166.7 2.9 11.4
      vertex 167.9 28.6 11.4
      vertex 167.9 1.4 11.4
    endloop
  endfacet
  facet normal -0 0 -1
    outer loop
      vertex 167.9 28.6 11.4
      vertex 166.7 2.9 11.4
      vertex 167.9 29.8 11.4
    endloop
  endfacet
  facet normal 0 0 -1
    outer loop
      vertex 166.7 57.8 11.4
      vertex 167.9 29.8 11.4
      vertex 166.7 2.9 11.4
    endloop
  endfacet
  facet normal 0 0 -1
    outer loop
      vertex 167.9 29.8 11.4
      vertex 166.7 57.8 11.4
      vertex 167.9 57.2 11.4
    endloop
  endfacet
  facet normal 0 0 -1
    outer loop
      vertex 167.9 57.2 11.4
      vertex 166.7 57.8 11.4
      vertex 167.9 58.4 11.4
    endloop
  endfacet
  facet normal 0 0 -1
    outer loop
      vertex 161.6 1.4 11.4
      vertex 166.7 2.9 11.4
      vertex 167.9 1.4 11.4
    endloop
  endfacet
  facet normal -0 0 -1
    outer loop
      vertex 166.7 2.9 11.4
      vertex 161.6 1.4 11.4
      vertex 161.6 2.9 11.4
    endloop
  endfacet
  facet normal 0 0 -1
    outer loop
      vertex 167.9 28.6 11.4
      vertex 228.3 29.8 11.4
      vertex 228.3 28.6 11.4
    endloop
  endfacet
  facet normal -0 0 -1
    outer loop
      vertex 228.3 29.8 11.4
      vertex 167.9 28.6 11.4
      vertex 167.9 29.8 11.4
    endloop
  endfacet
  facet normal 0 0 -1
    outer loop
      vertex 167.9 57.2 11.4
      vertex 228.3 58.4 11.4
      vertex 228.3 57.2 11.4
    endloop
  endfacet
  facet normal -0 0 -1
    outer loop
      vertex 228.3 58.4 11.4
      vertex 167.9 57.2 11.4
      vertex 167.9 58.4 11.4
    endloop
  endfacet
  facet normal 0 0 -1
    outer loop
      vertex 166.7 59 11.4
      vertex 167.9 58.4 11.4
      vertex 166.7 57.8 11.4
    endloop
  endfacet
  facet normal 0 0 -1
    outer loop
      vertex 167.9 58.4 11.4
      vertex 166.7 59 11.4
      vertex 167.9 74.8 11.4
    endloop
  endfacet
  facet normal -0 0 -1
    outer loop
      vertex 167.9 74.8 11.4
      vertex 166.7 59 11.4
      vertex 166.7 74.8 11.4
    endloop
  endfacet
  facet normal 0 0 -1
    outer loop
      vertex 135.4 92.2 11.4
      vertex 166.7 93.4 11.4
      vertex 166.7 92.2 11.4
    endloop
  endfacet
  facet normal 0 0 -1
    outer loop
      vertex 135.4 59 11.4
      vertex 134.2 75 11.4
      vertex 135.4 92.2 11.4
    endloop
  endfacet
  facet normal 0 0 -1
    outer loop
      vertex 134.2 76.2 11.4
      vertex 135.4 92.2 11.4
      vertex 134.2 75 11.4
    endloop
  endfacet
  facet normal 0 0 -1
    outer loop
      vertex 134.2 92.2 11.4
      vertex 135.4 92.2 11.4
      vertex 134.2 76.2 11.4
    endloop
  endfacet
  facet normal 0 0 -1
    outer loop
      vertex 134.2 92.2 11.4
      vertex 166.7 93.4 11.4
      vertex 135.4 92.2 11.4
    endloop
  endfacet
  facet normal 0 0 -1
    outer loop
      vertex 84.55 93.4 11.4
      vertex 134.2 92.2 11.4
      vertex 89.8667 92.2 11.4
    endloop
  endfacet
  facet normal 0 0 -1
    outer loop
      vertex 88.6667 92.2 11.4
      vertex 89.8667 92.2 11.4
      vertex 88.6667 76.2 11.4
    endloop
  endfacet
  facet normal 0 0 -1
    outer loop
      vertex 84.55 93.4 11.4
      vertex 89.8667 92.2 11.4
      vertex 88.6667 92.2 11.4
    endloop
  endfacet
  facet normal 0 0 -1
    outer loop
      vertex 134.2 92.2 11.4
      vertex 84.55 93.4 11.4
      vertex 166.7 93.4 11.4
    endloop
  endfacet
  facet normal 0 0 -1
    outer loop
      vertex 84.55 93.4 11.4
      vertex 83.35 93.4 11.4
      vertex 84.55 109.4 11.4
    endloop
  endfacet
  facet normal 0 0 -1
    outer loop
      vertex 88.6667 92.2 11.4
      vertex 83.35 93.4 11.4
      vertex 84.55 93.4 11.4
    endloop
  endfacet
  facet normal 0 0 -1
    outer loop
      vertex 1.4 92.2 11.4
      vertex 83.35 93.4 11.4
      vertex 88.6667 92.2 11.4
    endloop
  endfacet
  facet normal -0 0 -1
    outer loop
      vertex 83.35 93.4 11.4
      vertex 1.4 92.2 11.4
      vertex 1.4 93.4 11.4
    endloop
  endfacet
  facet normal 0 0 -1
    outer loop
      vertex 84.55 109.4 11.4
      vertex 166.7 110.6 11.4
      vertex 166.7 109.4 11.4
    endloop
  endfacet
  facet normal 0 0 -1
    outer loop
      vertex 83.35 109.4 11.4
      vertex 84.55 109.4 11.4
      vertex 83.35 93.4 11.4
    endloop
  endfacet
  facet normal 0 0 -1
    outer loop
      vertex 83.35 109.4 11.4
      vertex 166.7 110.6 11.4
      vertex 84.55 109.4 11.4
    endloop
  endfacet
  facet normal 0 0 -1
    outer loop
      vertex 1.4 110.6 11.4
      vertex 83.35 109.4 11.4
      vertex 1.4 109.4 11.4
    endloop
  endfacet
  facet normal 0 0 -1
    outer loop
      vertex 83.35 109.4 11.4
      vertex 1.4 110.6 11.4
      vertex 166.7 110.6 11.4
    endloop
  endfacet
  facet normal 0 0 -1
    outer loop
      vertex 23.3 1.4 11.4
      vertex 75.45 2.9 11.4
      vertex 75.45 1.4 11.4
    endloop
  endfacet
  facet normal -0 0 -1
    outer loop
      vertex 75.45 2.9 11.4
      vertex 23.3 1.4 11.4
      vertex 23.3 2.9 11.4
    endloop
  endfacet
  facet normal 0 0 -1
    outer loop
      vertex 92.45 1.4 11.4
      vertex 144.6 2.9 11.4
      vertex 144.6 1.4 11.4
    endloop
  endfacet
  facet normal -0 0 -1
    outer loop
      vertex 144.6 2.9 11.4
      vertex 92.45 1.4 11.4
      vertex 92.45 2.9 11.4
    endloop
  endfacet
  facet normal 0 -1 0
    outer loop
      vertex 1.4 1.4 11.4
      vertex 6.3 1.4 22.8
      vertex 1.4 1.4 22.8
    endloop
  endfacet
  facet normal 0 -1 -0
    outer loop
      vertex 6.3 1.4 22.8
      vertex 1.4 1.4 11.4
      vertex 6.3 1.4 11.4
    endloop
  endfacet
  facet normal 0 -1 0
    outer loop
      vertex 23.3 1.4 11.4
      vertex 75.45 1.4 22.8
      vertex 23.3 1.4 22.8
    endloop
  endfacet
  facet normal 0 -1 -0
    outer loop
      vertex 75.45 1.4 22.8
      vertex 23.3 1.4 11.4
      vertex 75.45 1.4 11.4
    endloop
  endfacet
  facet normal 0 -1 0
    outer loop
      vertex 92.45 1.4 11.4
      vertex 144.6 1.4 22.8
      vertex 92.45 1.4 22.8
    endloop
  endfacet
  facet normal 0 -1 -0
    outer loop
      vertex 144.6 1.4 22.8
      vertex 92.45 1.4 11.4
      vertex 144.6 1.4 11.4
    endloop
  endfacet
  facet normal 0 -1 0
    outer loop
      vertex 161.6 1.4 11.4
      vertex 167.9 1.4 22.8
      vertex 161.6 1.4 22.8
    endloop
  endfacet
  facet normal 0 -1 -0
    outer loop
      vertex 167.9 1.4 22.8
      vertex 161.6 1.4 11.4
      vertex 167.9 1.4 11.4
    endloop
  endfacet
  facet normal 1 -0 0
    outer loop
      vertex 228.3 28.6 22.8
      vertex 228.3 29.8 11.4
      vertex 228.3 29.8 22.8
    endloop
  endfacet
  facet normal 1 0 0
    outer loop
      vertex 228.3 29.8 11.4
      vertex 228.3 28.6 22.8
      vertex 228.3 28.6 11.4
    endloop
  endfacet
  facet normal 1 -0 0
    outer loop
      vertex 228.3 57.2 22.8
      vertex 228.3 58.4 11.4
      vertex 228.3 58.4 22.8
    endloop
  endfacet
  facet normal 1 0 0
    outer loop
      vertex 228.3 58.4 11.4
      vertex 228.3 57.2 22.8
      vertex 228.3 57.2 11.4
    endloop
  endfacet
  facet normal 0 1 -0
    outer loop
      vertex 167.9 74.8 11.4
      vertex 166.7 74.8 22.8
      vertex 167.9 74.8 22.8
    endloop
  endfacet
  facet normal 0 1 0
    outer loop
      vertex 166.7 74.8 22.8
      vertex 167.9 74.8 11.4
      vertex 166.7 74.8 11.4
    endloop
  endfacet
  facet normal -1 0 0
    outer loop
      vertex 166.7 2.9 11.4
      vertex 166.7 57.8 22.8
      vertex 166.7 57.8 11.4
    endloop
  endfacet
  facet normal -1 -0 0
    outer loop
      vertex 166.7 57.8 22.8
      vertex 166.7 2.9 11.4
      vertex 166.7 2.9 22.8
    endloop
  endfacet
  facet normal 0 -1 0
    outer loop
      vertex 1.4 57.8 11.4
      vertex 166.7 57.8 22.8
      vertex 1.4 57.8 22.8
    endloop
  endfacet
  facet normal 0 -1 -0
    outer loop
      vertex 166.7 57.8 22.8
      vertex 1.4 57.8 11.4
      vertex 166.7 57.8 11.4
    endloop
  endfacet
  facet normal 0 1 -0
    outer loop
      vertex 166.7 2.9 11.4
      vertex 161.6 2.9 22.8
      vertex 166.7 2.9 22.8
    endloop
  endfacet
  facet normal 0 1 0
    outer loop
      vertex 161.6 2.9 22.8
      vertex 166.7 2.9 11.4
      vertex 161.6 2.9 11.4
    endloop
  endfacet
  facet normal 0 1 -0
    outer loop
      vertex 144.6 2.9 11.4
      vertex 92.45 2.9 22.8
      vertex 144.6 2.9 22.8
    endloop
  endfacet
  facet normal 0 1 0
    outer loop
      vertex 92.45 2.9 22.8
      vertex 144.6 2.9 11.4
      vertex 92.45 2.9 11.4
    endloop
  endfacet
  facet normal 0 1 -0
    outer loop
      vertex 75.45 2.9 11.4
      vertex 23.3 2.9 22.8
      vertex 75.45 2.9 22.8
    endloop
  endfacet
  facet normal 0 1 0
    outer loop
      vertex 23.3 2.9 22.8
      vertex 75.45 2.9 11.4
      vertex 23.3 2.9 11.4
    endloop
  endfacet
  facet normal 0 1 -0
    outer loop
      vertex 6.3 2.9 11.4
      vertex 1.4 2.9 22.8
      vertex 6.3 2.9 22.8
    endloop
  endfacet
  facet normal 0 1 0
    outer loop
      vertex 1.4 2.9 22.8
      vertex 6.3 2.9 11.4
      vertex 1.4 2.9 11.4
    endloop
  endfacet
  facet normal 1 -0 0
    outer loop
      vertex 6.3 1.4 22.8
      vertex 6.3 2.9 11.4
      vertex 6.3 2.9 22.8
    endloop
  endfacet
  facet normal 1 0 0
    outer loop
      vertex 6.3 2.9 11.4
      vertex 6.3 1.4 22.8
      vertex 6.3 1.4 11.4
    endloop
  endfacet
  facet normal -1 0 0
    outer loop
      vertex 23.3 1.4 11.4
      vertex 23.3 2.9 22.8
      vertex 23.3 2.9 11.4
    endloop
  endfacet
  facet normal -1 -0 0
    outer loop
      vertex 23.3 2.9 22.8
      vertex 23.3 1.4 11.4
      vertex 23.3 1.4 22.8
    endloop
  endfacet
  facet normal 1 -0 0
    outer loop
      vertex 75.45 1.4 22.8
      vertex 75.45 2.9 11.4
      vertex 75.45 2.9 22.8
    endloop
  endfacet
  facet normal 1 0 0
    outer loop
      vertex 75.45 2.9 11.4
      vertex 75.45 1.4 22.8
      vertex 75.45 1.4 11.4
    endloop
  endfacet
  facet normal -1 0 0
    outer loop
      vertex 92.45 1.4 11.4
      vertex 92.45 2.9 22.8
      vertex 92.45 2.9 11.4
    endloop
  endfacet
  facet normal -1 -0 0
    outer loop
      vertex 92.45 2.9 22.8
      vertex 92.45 1.4 11.4
      vertex 92.45 1.4 22.8
    endloop
  endfacet
  facet normal 1 -0 0
    outer loop
      vertex 144.6 1.4 22.8
      vertex 144.6 2.9 11.4
      vertex 144.6 2.9 22.8
    endloop
  endfacet
  facet normal 1 0 0
    outer loop
      vertex 144.6 2.9 11.4
      vertex 144.6 1.4 22.8
      vertex 144.6 1.4 11.4
    endloop
  endfacet
  facet normal -1 0 0
    outer loop
      vertex 161.6 1.4 11.4
      vertex 161.6 2.9 22.8
      vertex 161.6 2.9 11.4
    endloop
  endfacet
  facet normal -1 -0 0
    outer loop
      vertex 161.6 2.9 22.8
      vertex 161.6 1.4 11.4
      vertex 161.6 1.4 22.8
    endloop
  endfacet
  facet normal -1 0 0
    outer loop
      vertex 134.2 59 11.4
      vertex 134.2 75 22.8
      vertex 134.2 75 11.4
    endloop
  endfacet
  facet normal -1 -0 0
    outer loop
      vertex 134.2 75 22.8
      vertex 134.2 59 11.4
      vertex 134.2 59 22.8
    endloop
  endfacet
  facet normal 0 -1 0
    outer loop
      vertex 1.4 75 11.4
      vertex 134.2 75 22.8
      vertex 1.4 75 22.8
    endloop
  endfacet
  facet normal 0 -1 -0
    outer loop
      vertex 134.2 75 22.8
      vertex 1.4 75 11.4
      vertex 134.2 75 11.4
    endloop
  endfacet
  facet normal 0 1 -0
    outer loop
      vertex 134.2 59 11.4
      vertex 1.4 59 22.8
      vertex 134.2 59 22.8
    endloop
  endfacet
  facet normal 0 1 0
    outer loop
      vertex 1.4 59 22.8
      vertex 134.2 59 11.4
      vertex 1.4 59 11.4
    endloop
  endfacet
  facet normal -1 0 0
    outer loop
      vertex 88.6667 76.2 11.4
      vertex 88.6667 92.2 22.8
      vertex 88.6667 92.2 11.4
    endloop
  endfacet
  facet normal -1 -0 0
    outer loop
      vertex 88.6667 92.2 22.8
      vertex 88.6667 76.2 11.4
      vertex 88.6667 76.2 22.8
    endloop
  endfacet
  facet normal 0 1 -0
    outer loop
      vertex 88.6667 76.2 11.4
      vertex 1.4 76.2 22.8
      vertex 88.6667 76.2 22.8
    endloop
  endfacet
  facet normal 0 1 0
    outer loop
      vertex 1.4 76.2 22.8
      vertex 88.6667 76.2 11.4
      vertex 1.4 76.2 11.4
    endloop
  endfacet
  facet normal 0 -1 0
    outer loop
      vertex 1.4 92.2 11.4
      vertex 88.6667 92.2 22.8
      vertex 1.4 92.2 22.8
    endloop
  endfacet
  facet normal 0 -1 -0
    outer loop
      vertex 88.6667 92.2 22.8
      vertex 1.4 92.2 11.4
      vertex 88.6667 92.2 11.4
    endloop
  endfacet
  facet normal 1 -0 0
    outer loop
      vertex 135.4 59 22.8
      vertex 135.4 92.2 11.4
      vertex 135.4 92.2 22.8
    endloop
  endfacet
  facet normal 1 0 0
    outer loop
      vertex 135.4 92.2 11.4
      vertex 135.4 59 22.8
      vertex 135.4 59 11.4
    endloop
  endfacet
  facet normal -1 0 0
    outer loop
      vertex 166.7 59 11.4
      vertex 166.7 74.8 22.8
      vertex 166.7 74.8 11.4
    endloop
  endfacet
  facet normal -1 -0 0
    outer loop
      vertex 166.7 74.8 22.8
      vertex 166.7 59 11.4
      vertex 166.7 59 22.8
    endloop
  endfacet
  facet normal 0 -1 0
    outer loop
      vertex 135.4 92.2 11.4
      vertex 166.7 92.2 22.8
      vertex 135.4 92.2 22.8
    endloop
  endfacet
  facet normal 0 -1 -0
    outer loop
      vertex 166.7 92.2 22.8
      vertex 135.4 92.2 11.4
      vertex 166.7 92.2 11.4
    endloop
  endfacet
  facet normal 0 1 -0
    outer loop
      vertex 166.7 59 11.4
      vertex 135.4 59 22.8
      vertex 166.7 59 22.8
    endloop
  endfacet
  facet normal 0 1 0
    outer loop
      vertex 135.4 59 22.8
      vertex 166.7 59 11.4
      vertex 135.4 59 11.4
    endloop
  endfacet
  facet normal 1 -0 0
    outer loop
      vertex 89.8667 76.2 22.8
      vertex 89.8667 92.2 11.4
      vertex 89.8667 92.2 22.8
    endloop
  endfacet
  facet normal 1 0 0
    outer loop
      vertex 89.8667 92.2 11.4
      vertex 89.8667 76.2 22.8
      vertex 89.8667 76.2 11.4
    endloop
  endfacet
  facet normal -1 0 0
    outer loop
      vertex 134.2 76.2 11.4
      vertex 134.2 92.2 22.8
      vertex 134.2 92.2 11.4
    endloop
  endfacet
  facet normal -1 -0 0
    outer loop
      vertex 134.2 92.2 22.8
      vertex 134.2 76.2 11.4
      vertex 134.2 76.2 22.8
    endloop
  endfacet
  facet normal 0 1 -0
    outer loop
      vertex 134.2 76.2 11.4
      vertex 89.8667 76.2 22.8
      vertex 134.2 76.2 22.8
    endloop
  endfacet
  facet normal 0 1 0
    outer loop
      vertex 89.8667 76.2 22.8
      vertex 134.2 76.2 11.4
      vertex 89.8667 76.2 11.4
    endloop
  endfacet
  facet normal 0 -1 0
    outer loop
      vertex 89.8667 92.2 11.4
      vertex 134.2 92.2 22.8
      vertex 89.8667 92.2 22.8
    endloop
  endfacet
  facet normal 0 -1 -0
    outer loop
      vertex 134.2 92.2 22.8
      vertex 89.8667 92.2 11.4
      vertex 134.2 92.2 11.4
    endloop
  endfacet
  facet normal -1 0 0
    outer loop
      vertex 83.35 93.4 11.4
      vertex 83.35 109.4 22.8
      vertex 83.35 109.4 11.4
    endloop
  endfacet
  facet normal -1 -0 0
    outer loop
      vertex 83.35 109.4 22.8
      vertex 83.35 93.4 11.4
      vertex 83.35 93.4 22.8
    endloop
  endfacet
  facet normal 0 1 -0
    outer loop
      vertex 83.35 93.4 11.4
      vertex 1.4 93.4 22.8
      vertex 83.35 93.4 22.8
    endloop
  endfacet
  facet normal 0 1 0
    outer loop
      vertex 1.4 93.4 22.8
      vertex 83.35 93.4 11.4
      vertex 1.4 93.4 11.4
    endloop
  endfacet
  facet normal 0 -1 0
    outer loop
      vertex 1.4 109.4 11.4
      vertex 83.35 109.4 22.8
      vertex 1.4 109.4 22.8
    endloop
  endfacet
  facet normal 0 -1 -0
    outer loop
      vertex 83.35 109.4 22.8
      vertex 1.4 109.4 11.4
      vertex 83.35 109.4 11.4
    endloop
  endfacet
  facet normal 1 -0 0
    outer loop
      vertex 84.55 93.4 22.8
      vertex 84.55 109.4 11.4
      vertex 84.55 109.4 22.8
    endloop
  endfacet
  facet normal 1 0 0
    outer loop
      vertex 84.55 109.4 11.4
      vertex 84.55 93.4 22.8
      vertex 84.55 93.4 11.4
    endloop
  endfacet
  facet normal 0 -1 0
    outer loop
      vertex 84.55 109.4 11.4
      vertex 166.7 109.4 22.8
      vertex 84.55 109.4 22.8
    endloop
  endfacet
  facet normal 0 -1 -0
    outer loop
      vertex 166.7 109.4 22.8
      vertex 84.55 109.4 11.4
      vertex 166.7 109.4 11.4
    endloop
  endfacet
  facet normal 0 1 -0
    outer loop
      vertex 166.7 93.4 11.4
      vertex 84.55 93.4 22.8
      vertex 166.7 93.4 22.8
    endloop
  endfacet
  facet normal 0 1 0
    outer loop
      vertex 84.55 93.4 22.8
      vertex 166.7 93.4 11.4
      vertex 84.55 93.4 11.4
    endloop
  endfacet
  facet normal 0 1 -0
    outer loop
      vertex 166.7 110.6 11.4
      vertex 1.4 110.6 22.8
      vertex 166.7 110.6 22.8
    endloop
  endfacet
  facet normal 0 1 0
    outer loop
      vertex 1.4 110.6 22.8
      vertex 166.7 110.6 11.4
      vertex 1.4 110.6 11.4
    endloop
  endfacet
  facet normal 1 -0 0
    outer loop
      vertex 167.9 1.4 22.8
      vertex 167.9 28.6 11.4
      vertex 167.9 28.6 22.8
    endloop
  endfacet
  facet normal 1 0 0
    outer loop
      vertex 167.9 28.6 11.4
      vertex 167.9 1.4 22.8
      vertex 167.9 1.4 11.4
    endloop
  endfacet
  facet normal 0 -1 0
    outer loop
      vertex 167.9 28.6 11.4
      vertex 228.3 28.6 22.8
      vertex 167.9 28.6 22.8
    endloop
  endfacet
  facet normal 0 -1 -0
    outer loop
      vertex 228.3 28.6 22.8
      vertex 167.9 28.6 11.4
      vertex 228.3 28.6 11.4
    endloop
  endfacet
  facet normal 1 -0 0
    outer loop
      vertex 167.9 29.8 22.8
      vertex 167.9 57.2 11.4
      vertex 167.9 57.2 22.8
    endloop
  endfacet
  facet normal 1 0 0
    outer loop
      vertex 167.9 57.2 11.4
      vertex 167.9 29.8 22.8
      vertex 167.9 29.8 11.4
    endloop
  endfacet
  facet normal 0 -1 0
    outer loop
      vertex 167.9 57.2 11.4
      vertex 228.3 57.2 22.8
      vertex 167.9 57.2 22.8
    endloop
  endfacet
  facet normal 0 -1 -0
    outer loop
      vertex 228.3 57.2 22.8
      vertex 167.9 57.2 11.4
      vertex 228.3 57.2 11.4
    endloop
  endfacet
  facet normal 0 1 -0
    outer loop
      vertex 228.3 29.8 11.4
      vertex 167.9 29.8 22.8
      vertex 228.3 29.8 22.8
    endloop
  endfacet
  facet normal 0 1 0
    outer loop
      vertex 167.9 29.8 22.8
      vertex 228.3 29.8 11.4
      vertex 167.9 29.8 11.4
    endloop
  endfacet
  facet normal 1 -0 0
    outer loop
      vertex 167.9 58.4 22.8
      vertex 167.9 74.8 11.4
      vertex 167.9 74.8 22.8
    endloop
  endfacet
  facet normal 1 0 0
    outer loop
      vertex 167.9 74.8 11.4
      vertex 167.9 58.4 22.8
      vertex 167.9 58.4 11.4
    endloop
  endfacet
  facet normal 0 1 -0
    outer loop
      vertex 228.3 58.4 11.4
      vertex 167.9 58.4 22.8
      vertex 228.3 58.4 22.8
    endloop
  endfacet
  facet normal 0 1 0
    outer loop
      vertex 167.9 58.4 22.8
      vertex 228.3 58.4 11.4
      vertex 167.9 58.4 11.4
    endloop
  endfacet
  facet normal 0 0 -1
    outer loop
      vertex 89.8667 76.2 22.8
      vertex 134.2 92.2 22.8
      vertex 134.2 76.2 22.8
    endloop
  endfacet
  facet normal -0 0 -1
    outer loop
      vertex 134.2 92.2 22.8
      vertex 89.8667 76.2 22.8
      vertex 89.8667 92.2 22.8
    endloop
  endfacet
  facet normal 0 0 -1
    outer loop
      vertex 84.55 93.4 22.8
      vertex 166.7 109.4 22.8
      vertex 166.7 93.4 22.8
    endloop
  endfacet
  facet normal -0 0 -1
    outer loop
      vertex 166.7 109.4 22.8
      vertex 84.55 93.4 22.8
      vertex 84.55 109.4 22.8
    endloop
  endfacet
  facet normal 0 0 -1
    outer loop
      vertex 167.9 29.8 22.8
      vertex 228.3 57.2 22.8
      vertex 228.3 29.8 22.8
    endloop
  endfacet
  facet normal -0 0 -1
    outer loop
      vertex 228.3 57.2 22.8
      vertex 167.9 29.8 22.8
      vertex 167.9 57.2 22.8
    endloop
  endfacet
  facet normal 0 0 -1
    outer loop
      vertex 228.3 29.8 22.8
      vertex 229.7 -0.2 22.8
      vertex 228.3 28.6 22.8
    endloop
  endfacet
  facet normal 0 0 -1
    outer loop
      vertex 229.7 -0.2 22.8
      vertex 167.9 1.4 22.8
      vertex 228.3 28.6 22.8
    endloop
  endfacet
  facet normal 0 0 -1
    outer loop
      vertex 229.7 -0.2 22.8
      vertex 161.6 1.4 22.8
      vertex 167.9 1.4 22.8
    endloop
  endfacet
  facet normal 0 0 -1
    outer loop
      vertex 161.6 1.4 22.8
      vertex 144.6 1.4 22.8
      vertex 161.6 2.9 22.8
    endloop
  endfacet
  facet normal 0 0 -1
    outer loop
      vertex 229.7 -0.2 22.8
      vertex 144.6 1.4 22.8
      vertex 161.6 1.4 22.8
    endloop
  endfacet
  facet normal 0 0 -1
    outer loop
      vertex 229.7 -0.2 22.8
      vertex 92.45 1.4 22.8
      vertex 144.6 1.4 22.8
    endloop
  endfacet
  facet normal 0 0 -1
    outer loop
      vertex 92.45 1.4 22.8
      vertex 75.45 1.4 22.8
      vertex 92.45 2.9 22.8
    endloop
  endfacet
  facet normal 0 0 -1
    outer loop
      vertex 229.7 -0.2 22.8
      vertex 75.45 1.4 22.8
      vertex 92.45 1.4 22.8
    endloop
  endfacet
  facet normal 0 0 -1
    outer loop
      vertex -0.2 -0.2 22.8
      vertex 75.45 1.4 22.8
      vertex 229.7 -0.2 22.8
    endloop
  endfacet
  facet normal 0 0 -1
    outer loop
      vertex 23.3 1.4 22.8
      vertex 6.3 1.4 22.8
      vertex 23.3 2.9 22.8
    endloop
  endfacet
  facet normal -0 0 -1
    outer loop
      vertex 75.45 1.4 22.8
      vertex -0.2 -0.2 22.8
      vertex 23.3 1.4 22.8
    endloop
  endfacet
  facet normal -0 0 -1
    outer loop
      vertex 23.3 1.4 22.8
      vertex -0.2 -0.2 22.8
      vertex 6.3 1.4 22.8
    endloop
  endfacet
  facet normal 0 0 -1
    outer loop
      vertex -0.2 -0.2 22.8
      vertex 1.4 2.9 22.8
      vertex 1.4 1.4 22.8
    endloop
  endfacet
  facet normal -0 0 -1
    outer loop
      vertex 1.4 2.9 22.8
      vertex -0.2 -0.2 22.8
      vertex 1.4 57.8 22.8
    endloop
  endfacet
  facet normal -0 0 -1
    outer loop
      vertex 1.4 57.8 22.8
      vertex -0.2 -0.2 22.8
      vertex 1.4 59 22.8
    endloop
  endfacet
  facet normal -0 0 -1
    outer loop
      vertex 1.4 59 22.8
      vertex -0.2 -0.2 22.8
      vertex 1.4 75 22.8
    endloop
  endfacet
  facet normal 0 0 -1
    outer loop
      vertex -0.2 120 22.8
      vertex 1.4 75 22.8
      vertex -0.2 -0.2 22.8
    endloop
  endfacet
  facet normal 0 0 -1
    outer loop
      vertex 1.4 75 22.8
      vertex -0.2 120 22.8
      vertex 1.4 76.2 22.8
    endloop
  endfacet
  facet normal 0 0 -1
    outer loop
      vertex 1.4 76.2 22.8
      vertex -0.2 120 22.8
      vertex 1.4 92.2 22.8
    endloop
  endfacet
  facet normal 0 0 -1
    outer loop
      vertex 1.4 92.2 22.8
      vertex -0.2 120 22.8
      vertex 1.4 93.4 22.8
    endloop
  endfacet
  facet normal 0 0 -1
    outer loop
      vertex 1.4 93.4 22.8
      vertex -0.2 120 22.8
      vertex 1.4 109.4 22.8
    endloop
  endfacet
  facet normal -0 0 -1
    outer loop
      vertex 6.3 1.4 22.8
      vertex -0.2 -0.2 22.8
      vertex 1.4 1.4 22.8
    endloop
  endfacet
  facet normal 0 0 -1
    outer loop
      vertex 228.3 57.2 22.8
      vertex 229.7 -0.2 22.8
      vertex 228.3 29.8 22.8
    endloop
  endfacet
  facet normal 0 0 -1
    outer loop
      vertex 229.7 -0.2 22.8
      vertex 228.3 57.2 22.8
      vertex 229.7 120 22.8
    endloop
  endfacet
  facet normal 0 0 -1
    outer loop
      vertex 228.3 58.4 22.8
      vertex 229.7 120 22.8
      vertex 228.3 57.2 22.8
    endloop
  endfacet
  facet normal 0 0 -1
    outer loop
      vertex 167.9 74.8 22.8
      vertex 228.3 58.4 22.8
      vertex 167.9 58.4 22.8
    endloop
  endfacet
  facet normal 0 0 -1
    outer loop
      vertex 166.7 92.2 22.8
      vertex 228.3 58.4 22.8
      vertex 167.9 74.8 22.8
    endloop
  endfacet
  facet normal 0 0 -1
    outer loop
      vertex 166.7 92.2 22.8
      vertex 167.9 74.8 22.8
      vertex 166.7 74.8 22.8
    endloop
  endfacet
  facet normal 0 0 -1
    outer loop
      vertex 228.3 58.4 22.8
      vertex 166.7 92.2 22.8
      vertex 229.7 120 22.8
    endloop
  endfacet
  facet normal 0 0 -1
    outer loop
      vertex 166.7 93.4 22.8
      vertex 229.7 120 22.8
      vertex 166.7 92.2 22.8
    endloop
  endfacet
  facet normal 0 0 -1
    outer loop
      vertex 166.7 109.4 22.8
      vertex 229.7 120 22.8
      vertex 166.7 93.4 22.8
    endloop
  endfacet
  facet normal 0 0 -1
    outer loop
      vertex 166.7 110.6 22.8
      vertex 229.7 120 22.8
      vertex 166.7 109.4 22.8
    endloop
  endfacet
  facet normal 0 0 -1
    outer loop
      vertex -0.2 120 22.8
      vertex 166.7 110.6 22.8
      vertex 1.4 110.6 22.8
    endloop
  endfacet
  facet normal 0 0 -1
    outer loop
      vertex 166.7 110.6 22.8
      vertex -0.2 120 22.8
      vertex 229.7 120 22.8
    endloop
  endfacet
  facet normal 0 0 -1
    outer loop
      vertex 1.4 109.4 22.8
      vertex -0.2 120 22.8
      vertex 1.4 110.6 22.8
    endloop
  endfacet
  facet normal -0 0 -1
    outer loop
      vertex 228.3 28.6 22.8
      vertex 167.9 1.4 22.8
      vertex 167.9 28.6 22.8
    endloop
  endfacet
  facet normal 0 0 -1
    outer loop
      vertex 135.4 59 22.8
      vertex 166.7 74.8 22.8
      vertex 166.7 59 22.8
    endloop
  endfacet
  facet normal 0 0 -1
    outer loop
      vertex 135.4 92.2 22.8
      vertex 166.7 74.8 22.8
      vertex 135.4 59 22.8
    endloop
  endfacet
  facet normal 0 0 -1
    outer loop
      vertex 166.7 74.8 22.8
      vertex 135.4 92.2 22.8
      vertex 166.7 92.2 22.8
    endloop
  endfacet
  facet normal 0 0 -1
    outer loop
      vertex 161.6 2.9 22.8
      vertex 166.7 57.8 22.8
      vertex 166.7 2.9 22.8
    endloop
  endfacet
  facet normal 0 0 -1
    outer loop
      vertex 144.6 2.9 22.8
      vertex 161.6 2.9 22.8
      vertex 144.6 1.4 22.8
    endloop
  endfacet
  facet normal 0 0 -1
    outer loop
      vertex 161.6 2.9 22.8
      vertex 144.6 2.9 22.8
      vertex 166.7 57.8 22.8
    endloop
  endfacet
  facet normal 0 0 -1
    outer loop
      vertex 92.45 2.9 22.8
      vertex 166.7 57.8 22.8
      vertex 144.6 2.9 22.8
    endloop
  endfacet
  facet normal 0 0 -1
    outer loop
      vertex 75.45 2.9 22.8
      vertex 92.45 2.9 22.8
      vertex 75.45 1.4 22.8
    endloop
  endfacet
  facet normal 0 0 -1
    outer loop
      vertex 92.45 2.9 22.8
      vertex 75.45 2.9 22.8
      vertex 166.7 57.8 22.8
    endloop
  endfacet
  facet normal 0 0 -1
    outer loop
      vertex 1.4 57.8 22.8
      vertex 75.45 2.9 22.8
      vertex 23.3 2.9 22.8
    endloop
  endfacet
  facet normal 0 0 -1
    outer loop
      vertex 6.3 2.9 22.8
      vertex 23.3 2.9 22.8
      vertex 6.3 1.4 22.8
    endloop
  endfacet
  facet normal 0 0 -1
    outer loop
      vertex 1.4 57.8 22.8
      vertex 23.3 2.9 22.8
      vertex 6.3 2.9 22.8
    endloop
  endfacet
  facet normal 0 0 -1
    outer loop
      vertex 1.4 57.8 22.8
      vertex 6.3 2.9 22.8
      vertex 1.4 2.9 22.8
    endloop
  endfacet
  facet normal 0 0 -1
    outer loop
      vertex 75.45 2.9 22.8
      vertex 1.4 57.8 22.8
      vertex 166.7 57.8 22.8
    endloop
  endfacet
  facet normal 0 0 -1
    outer loop
      vertex 1.4 59 22.8
      vertex 134.2 75 22.8
      vertex 134.2 59 22.8
    endloop
  endfacet
  facet normal -0 0 -1
    outer loop
      vertex 134.2 75 22.8
      vertex 1.4 59 22.8
      vertex 1.4 75 22.8
    endloop
  endfacet
  facet normal 0 0 -1
    outer loop
      vertex 1.4 76.2 22.8
      vertex 88.6667 92.2 22.8
      vertex 88.6667 76.2 22.8
    endloop
  endfacet
  facet normal -0 0 -1
    outer loop
      vertex 88.6667 92.2 22.8
      vertex 1.4 76.2 22.8
      vertex 1.4 92.2 22.8
    endloop
  endfacet
  facet normal 0 0 -1
    outer loop
      vertex 1.4 93.4 22.8
      vertex 83.35 109.4 22.8
      vertex 83.35 93.4 22.8
    endloop
  endfacet
  facet normal -0 0 -1
    outer loop
      vertex 83.35 109.4 22.8
      vertex 1.4 93.4 22.8
      vertex 1.4 109.4 22.8
    endloop
  endfacet
  facet normal -1 0 0
    outer loop
      vertex -1.4 -1.4 21.6
      vertex -1.4 121.2 24
      vertex -1.4 121.2 21.6
    endloop
  endfacet
  facet normal -1 -0 0
    outer loop
      vertex -1.4 121.2 24
      vertex -1.4 -1.4 21.6
      vertex -1.4 -1.4 24
    endloop
  endfacet
  facet normal -0 0 1
    outer loop
      vertex -1.4 121.2 24
      vertex 230.9 -1.4 24
      vertex 230.9 121.2 24
    endloop
  endfacet
  facet normal 0 0 1
    outer loop
      vertex 230.9 -1.4 24
      vertex -1.4 121.2 24
      vertex -1.4 -1.4 24
    endloop
  endfacet
  facet normal 1 -0 0
    outer loop
      vertex 230.9 -1.4 24
      vertex 230.9 121.2 21.6
      vertex 230.9 121.2 24
    endloop
  endfacet
  facet normal 1 0 0
    outer loop
      vertex 230.9 121.2 21.6
      vertex 230.9 -1.4 24
      vertex 230.9 -1.4 21.6
    endloop
  endfacet
  facet normal 0 1 -0
    outer loop
      vertex 230.9 121.2 21.6
      vertex -1.4 121.2 24
      vertex 230.9 121.2 24
    endloop
  endfacet
  facet normal 0 1 0
    outer loop
      vertex -1.4 121.2 24
      vertex 230.9 121.2 21.6
      vertex -1.4 121.2 21.6
    endloop
  endfacet
  facet normal 0 -1 0
    outer loop
      vertex -1.4 -1.4 21.6
      vertex 230.9 -1.4 24
      vertex -1.4 -1.4 24
    endloop
  endfacet
  facet normal 0 -1 -0
    outer loop
      vertex 230.9 -1.4 24
      vertex -1.4 -1.4 21.6
      vertex 230.9 -1.4 21.6
    endloop
  endfacet
  facet normal 0 1 -0
    outer loop
      vertex 229.7 -0.2 21.6
      vertex -0.2 -0.2 22.8
      vertex 229.7 -0.2 22.8
    endloop
  endfacet
  facet normal 0 1 0
    outer loop
      vertex -0.2 -0.2 22.8
      vertex 229.7 -0.2 21.6
      vertex -0.2 -0.2 21.6
    endloop
  endfacet
  facet normal 0 0 -1
    outer loop
      vertex 230.9 -1.4 21.6
      vertex 229.7 -0.2 21.6
      vertex 230.9 121.2 21.6
    endloop
  endfacet
  facet normal 0 0 -1
    outer loop
      vertex 230.9 -1.4 21.6
      vertex -0.2 -0.2 21.6
      vertex 229.7 -0.2 21.6
    endloop
  endfacet
  facet normal -0 0 -1
    outer loop
      vertex -0.2 -0.2 21.6
      vertex -1.4 -1.4 21.6
      vertex -0.2 120 21.6
    endloop
  endfacet
  facet normal 0 0 -1
    outer loop
      vertex -1.4 -1.4 21.6
      vertex -0.2 -0.2 21.6
      vertex 230.9 -1.4 21.6
    endloop
  endfacet
  facet normal 0 0 -1
    outer loop
      vertex 229.7 120 21.6
      vertex 230.9 121.2 21.6
      vertex 229.7 -0.2 21.6
    endloop
  endfacet
  facet normal 0 0 -1
    outer loop
      vertex -0.2 120 21.6
      vertex 230.9 121.2 21.6
      vertex 229.7 120 21.6
    endloop
  endfacet
  facet normal 0 0 -1
    outer loop
      vertex -0.2 120 21.6
      vertex -1.4 121.2 21.6
      vertex 230.9 121.2 21.6
    endloop
  endfacet
  facet normal 0 0 -1
    outer loop
      vertex -1.4 121.2 21.6
      vertex -0.2 120 21.6
      vertex -1.4 -1.4 21.6
    endloop
  endfacet
  facet normal 1 -0 0
    outer loop
      vertex -0.2 -0.2 22.8
      vertex -0.2 120 21.6
      vertex -0.2 120 22.8
    endloop
  endfacet
  facet normal 1 0 0
    outer loop
      vertex -0.2 120 21.6
      vertex -0.2 -0.2 22.8
      vertex -0.2 -0.2 21.6
    endloop
  endfacet
  facet normal 0 -1 0
    outer loop
      vertex -0.2 120 21.6
      vertex 229.7 120 22.8
      vertex -0.2 120 22.8
    endloop
  endfacet
  facet normal 0 -1 -0
    outer loop
      vertex 229.7 120 22.8
      vertex -0.2 120 21.6
      vertex 229.7 120 21.6
    endloop
  endfacet
  facet normal -1 0 0
    outer loop
      vertex 229.7 -0.2 21.6
      vertex 229.7 120 22.8
      vertex 229.7 120 21.6
    endloop
  endfacet
  facet normal -1 -0 0
    outer loop
      vertex 229.7 120 22.8
      vertex 229.7 -0.2 21.6
      vertex 229.7 -0.2 22.8
    endloop
  endfacet
endsolid OpenSCAD_Model
